<?xml version="1.0" encoding="utf-8" ?>
<svg baseProfile="full" fill="#FF0000" height="180" version="1.1" viewBox="(0, 0, 135, 180)" width="135" xmlns="http://www.w3.org/2000/svg" xmlns:ev="http://www.w3.org/2001/xml-events" xmlns:xlink="http://www.w3.org/1999/xlink"><defs /><rect fill="#EEEEEE" height="180" stroke="rgb(10,10,20)" stroke-width="1" width="135" x="0" y="0" /><line stroke="rgb(10,10,20)" stroke-width="3" x1="120" x2="20" y1="40" y2="40" /><line stroke="rgb(10,10,20)" stroke-width="3" x1="120" x2="20" y1="70" y2="70" /><line stroke="rgb(10,10,20)" stroke-width="3" x1="120" x2="20" y1="100" y2="100" /><line stroke="rgb(10,10,20)" stroke-width="3" x1="120" x2="20" y1="130" y2="130" /><line stroke="rgb(10,10,20)" stroke-width="3" x1="120" x2="20" y1="160" y2="160" /><line stroke="rgb(10,10,20)" stroke-width="1" x1="20" x2="20" y1="40" y2="160" /><line stroke="rgb(10,10,20)" stroke-width="1" x1="40" x2="40" y1="40" y2="160" /><line stroke="rgb(10,10,20)" stroke-width="1" x1="60" x2="60" y1="40" y2="160" /><line stroke="rgb(10,10,20)" stroke-width="1" x1="80" x2="80" y1="40" y2="160" /><line stroke="rgb(10,10,20)" stroke-width="1" x1="100" x2="100" y1="40" y2="160" /><line stroke="rgb(10,10,20)" stroke-width="1" x1="120" x2="120" y1="40" y2="160" /><text fill="rgb(15,15,15)" font-size="16" font-weight="bold" stroke="none" style="font-family:consolas" x="1" y="49">1</text><text fill="rgb(15,15,15)" font-size="18" font-weight="bold" stroke="none" style="font-family:consolas" x="65.0" y="18">C</text><circle cx="20.0" cy="30.0" fill="white" r="8" stroke="rgb(10,10,10)" /><circle cx="20.0" cy="60.0" fill="white" r="8" stroke="rgb(10,10,10)" /><circle cx="20.0" cy="120.0" fill="white" r="8" stroke="rgb(10,10,10)" /><circle cx="40.0" cy="30.0" fill="white" r="8" stroke="rgb(10,10,10)" /><circle cx="40.0" cy="90.0" fill="white" r="8" stroke="rgb(10,10,10)" /><circle cx="40.0" cy="120.0" fill="black" r="8" stroke="rgb(10,10,10)" /><circle cx="60.0" cy="30.0" fill="white" r="8" stroke="rgb(10,10,10)" /><circle cx="60.0" cy="90.0" fill="white" r="8" stroke="rgb(10,10,10)" /><circle cx="60.0" cy="120.0" fill="white" r="8" stroke="rgb(10,10,10)" /><circle cx="80.0" cy="30.0" fill="white" r="8" stroke="rgb(10,10,10)" /><circle cx="80.0" cy="90.0" fill="white" r="8" stroke="rgb(10,10,10)" /><circle cx="80.0" cy="150.0" fill="white" r="8" stroke="rgb(10,10,10)" /><circle cx="100.0" cy="30.0" fill="white" r="8" stroke="rgb(10,10,10)" /><circle cx="100.0" cy="60.0" fill="black" r="8" stroke="rgb(10,10,10)" /><circle cx="100.0" cy="120.0" fill="white" r="8" stroke="rgb(10,10,10)" /><circle cx="120.0" cy="30.0" fill="white" r="8" stroke="rgb(10,10,10)" /><circle cx="120.0" cy="60.0" fill="white" r="8" stroke="rgb(10,10,10)" /><circle cx="120.0" cy="120.0" fill="white" r="8" stroke="rgb(10,10,10)" /></svg>